<?xml version="1.0" encoding="utf-8"?>
<!-- Generator: Adobe Illustrator 23.0.2, SVG Export Plug-In . SVG Version: 6.00 Build 0)  -->
<svg version="1.1" id="Layer_1" xmlns="http://www.w3.org/2000/svg" xmlns:xlink="http://www.w3.org/1999/xlink" x="0px" y="0px"
	 viewBox="0 0 512 512" style="enable-background:new 0 0 512 512;" xml:space="preserve">
<g>
	<path fill="#ffffff" d="M466,512c-140,0-280,0-420,0c-3-0.9-6-1.7-9-2.6c-22.6-7.3-37-27.5-37-52c0-68,0.1-136,0.1-204c0-65.8-0.2-131.7,0.1-197.5
		c0-8.1,1.5-16.8,4.7-24.2c9.5-21.2,26.8-31.7,50-31.7c70-0.1,140,0,210,0C329,0,393.2,0,457.4,0c24.5,0,44.6,14.4,52,37
		c1,3,1.7,6,2.6,9c0,140,0,280,0,420c-0.4,1.1-0.8,2.1-1,3.2c-4.7,19.9-16.6,33.5-36,40.2C472,510.4,469,511.1,466,512z M490.7,245
		c0-2,0-3.8,0-5.6c0-60.8,0-121.6,0-182.4c0-22.6-13.1-35.7-35.6-35.7c-60.8,0-121.6,0-182.4,0c-1.8,0-3.6,0-5.6,0
		c0,74.9,0,149.2,0,223.7C341.7,245,415.9,245,490.7,245z M244.9,21.3c-1.9,0-3.6,0-5.2,0c-61.1,0-122.3,0-183.4,0
		c-21.9,0-35.1,13.3-35.1,35.3c0,61,0,121.9,0,182.9c0,1.8,0,3.6,0,5.4c75,0,149.3,0,223.7,0C244.9,170.2,244.9,96,244.9,21.3z
		 M21.3,267.1c0,1.9,0,3.6,0,5.2c0,61.1,0,122.3,0,183.4c0,21.9,13.3,35.1,35.3,35.1c61,0,121.9,0,182.9,0c1.8,0,3.6,0,5.4,0
		c0-75,0-149.3,0-223.7C170.2,267.1,96,267.1,21.3,267.1z M266.9,490.8c2.1,0,3.7,0,5.3,0c61.1,0,122.3,0,183.4,0
		c21.9,0,35.1-13.3,35.1-35.3c0-61,0-121.9,0-182.9c0-1.8,0-3.6,0-5.4c-75,0-149.3,0-223.8,0C266.9,341.7,266.9,415.8,266.9,490.8z"
		/>
	<path fill="#ffffff" d="M383.7,149.3c-13.5,0-27,0-40.5,0c-8,0-12.4-3.8-12.4-10.4c-0.1-6.8,4.5-10.8,12.7-10.8c27.2,0,54.3,0,81.5,0
		c6.7,0,11,3,12,8.3c1.4,7.1-3.2,12.8-10.8,12.9C412.1,149.4,397.9,149.2,383.7,149.3C383.7,149.3,383.7,149.3,383.7,149.3z"/>
	<path fill="#ffffff" d="M117.2,149.3c-10.9,0-21.1,0.1-31.4,0c-7.1-0.1-11.4-4.7-11-11.4c0.4-5.8,4.6-9.7,11.1-9.8c8.7-0.1,17.3,0,26,0
		c1.6,0,3.2,0,5.3,0c0-10.7-0.1-20.8,0-30.9c0.2-8.6,6.9-13.7,14.3-11.1c4.6,1.6,7.1,5.4,7.1,11.4c0.1,10,0,19.9,0,30.5
		c6.3,0,12.2,0,18.2,0c4.7,0,9.3-0.1,14,0.1c6.2,0.3,10.3,4.7,10.3,10.6c0,6-4,10.3-10.4,10.4c-8.7,0.2-17.3,0.1-26,0.1
		c-1.8,0-3.6,0-6.1,0c0,8.1,0,15.7,0,23.2c0,2.5,0.1,5,0,7.5c-0.2,7.3-4.4,11.9-10.7,12c-6.3,0-10.6-4.6-10.8-11.8
		c-0.1-8.3,0-16.7,0-25C117.2,153.4,117.2,151.6,117.2,149.3z"/>
	<path fill="#ffffff" d="M127.8,398.9c-8.1,8.2-16,16.3-24.1,24.2c-5.2,5.1-11.9,4.6-16.1-0.8c-3.4-4.4-3.1-9.6,1.2-14c6.7-6.9,13.6-13.7,20.4-20.6
		c1.2-1.2,2.2-2.4,3.8-4c-8.2-8.1-16.3-16-24.1-24.1c-5-5.1-4.7-11.4,0.4-15.8c4.4-3.7,9.8-3.5,14.4,0.9
		c6.9,6.7,13.7,13.6,20.6,20.4c1.2,1.2,2.4,2.2,4.2,3.9c8.1-8.2,15.9-16.4,23.9-24.3c5.4-5.3,12.8-4.4,16.7,1.6
		c2.7,4.3,2.2,9.1-1.8,13.2c-6.7,6.9-13.6,13.7-20.5,20.5c-1.1,1.2-2.2,2.4-3.8,4.1c8.2,8.1,16.3,16,24.3,24
		c3.3,3.2,4.9,7.5,2.5,11.3c-1.8,2.9-5.3,5.9-8.5,6.5c-2.7,0.6-6.8-1.4-9.2-3.5c-7.1-6.3-13.5-13.3-20.3-20
		C130.6,401.5,129.4,400.4,127.8,398.9z"/>
	<path fill="#ffffff" d="M384.5,341.3c13,0,26,0,39,0c2.1,0,4.4,0.1,6.4,0.7c4.6,1.4,7.1,4.8,7.3,9.6c0.2,4.9-2.5,9-7,10.3
		c-1.9,0.6-3.9,0.8-5.9,0.8c-26.8,0-53.6,0.1-80.5,0c-7.4,0-11.8-3.1-12.8-8.6c-1.3-7.4,3.6-12.8,12.1-12.8
		C356.8,341.2,370.7,341.3,384.5,341.3z"/>
	<path fill="#ffffff" d="M384.5,405.3c13,0,26,0,39,0c2.1,0,4.4,0.1,6.4,0.7c4.6,1.4,7.1,4.8,7.3,9.6c0.2,4.9-2.5,9-7,10.3
		c-1.9,0.6-3.9,0.8-5.9,0.8c-26.8,0-53.6,0.1-80.5,0c-7.4,0-11.8-3.1-12.8-8.6c-1.3-7.4,3.6-12.8,12-12.8
		C356.8,405.2,370.7,405.3,384.5,405.3z"/>
</g>
</svg>
