<?xml version="1.0" encoding="utf-8"?>
<!-- Generator: Adobe Illustrator 23.0.2, SVG Export Plug-In . SVG Version: 6.00 Build 0)  -->
<svg version="1.1" id="Layer_1" xmlns="http://www.w3.org/2000/svg" xmlns:xlink="http://www.w3.org/1999/xlink" x="0px" y="0px"
	 viewBox="0 0 512 512" style="enable-background:new 0 0 512 512;" xml:space="preserve">
<g>
	<path d="M254.2,512c-41.8-1.2-81.2-10.8-118.4-29.9c-3.1-1.6-7.6-1.9-10.9-1c-27.4,7.4-54.6,15.4-81.9,22.9
		c-17,4.7-33.6-5.1-36.7-22.2c-1-5.4-0.2-11.5,1.3-16.9c7.4-26.2,15.3-52.3,23.3-78.3c1.5-4.8,1-8.7-1.4-13.2
		C-47.3,226.4,35.3,45.5,196.6,7c140.5-33.5,280.5,56,309.7,197.8c28.5,138.8-63.1,275.3-202.9,301.5
		C287.2,509.4,270.6,510.2,254.2,512z M44.1,466.5c2.6-0.7,4.3-1.2,6.1-1.7c21.3-6.4,42.6-12.6,63.8-19.3
		c13.4-4.3,25.8-2.8,38.1,3.7c45.2,23.9,93.1,31,143.4,22C417.2,449.6,498.1,326.2,469.3,206C437.3,72.4,297-0.6,170.5,52.8
		C87.1,88,42.3,153.7,35.6,244.2c-3,40.7,6.6,79.2,26,115.1c6.5,11.9,7.9,24,3.7,37c-4.4,13.8-8.4,27.6-12.6,41.5
		C49.9,447.1,47.1,456.4,44.1,466.5z"/>
	<path d="M254.9,236.4c16.2-0.1,29.8,13.4,29.8,29.7c0.1,16.2-13.4,29.8-29.7,29.8c-16.2,0.1-29.8-13.4-29.8-29.7
		C225.2,250.1,238.6,236.5,254.9,236.4z"/>
	<path d="M320.4,266c0.1-16.4,13.5-29.7,29.8-29.5c16.3,0.2,29.6,13.6,29.5,30c-0.1,16.3-13.7,29.7-29.9,29.6
		C333.4,295.8,320.3,282.5,320.4,266z"/>
	<path d="M189.5,266.2c0,16.5-13.2,29.8-29.5,29.8c-16.3,0-29.7-13.5-29.7-29.7c0-16.3,13.4-29.7,29.6-29.8
		C176.2,236.4,189.5,249.7,189.5,266.2z"/>
</g>
</svg>
