<?xml version="1.0" encoding="utf-8"?>
<!-- Generator: Adobe Illustrator 23.0.2, SVG Export Plug-In . SVG Version: 6.00 Build 0)  -->
<svg version="1.1" id="Layer_1" xmlns="http://www.w3.org/2000/svg" xmlns:xlink="http://www.w3.org/1999/xlink" x="0px" y="0px"
	 viewBox="0 0 512 512" style="enable-background:new 0 0 512 512;" xml:space="preserve">
<g>
	<path fill="#ffffff" d="M512,504.9c-3.1,5.6-7.9,7.1-14.2,7.1c-161.1-0.1-322.2-0.1-483.4-0.1c-11.5,0-14.4-3-14.4-14.6c0-15,0.3-30-0.1-45
		c-1.1-45.7,18.7-78.5,60.1-99.1c-18.6-16-27.1-36.1-22.9-60.6c2.6-15.2,10.4-27.7,22.5-37.2c25.5-20,61.1-17.2,83.4,6
		c20,20.7,27.1,62.7-6.2,91.3c10.6,7.2,21.3,14.5,32.2,22c10.7-20.2,27-35.5,49.3-45.2c-17.4-14.7-26.1-33.1-24.1-55.6
		c1.5-16.4,8.9-30.2,21.4-41c24.1-20.9,60.6-19.7,83.5,2.9c13.3,13.1,19.6,29.2,18.4,47.9c-1.1,18.6-9.6,33.6-24.3,45.7
		c22.1,9.7,38.6,24.9,49.3,45.3c10.9-7.4,21.6-14.7,32.5-22.2c-16.2-13.6-24.8-31.6-23.1-53.8c1.3-16.7,8.6-30.6,21.2-41.6
		c24.7-21.7,62.5-19.7,85.4,4.2c22.2,23.2,25.3,64.9-7,92.1c2.6,1.3,5.1,2.4,7.4,3.7c29.5,16.4,47,41,51.8,74.5
		c0.2,1.1,0.6,2.2,0.9,3.3C512,458.2,512,481.6,512,504.9z M178.3,491.7c38.8,0,77.1,0,115.9,0c0-6.7-0.1-13.1,0-19.6
		c0.1-4.6-0.1-9.4,0.7-13.9c0.9-5.2,5.1-7.9,10.2-7.5c4.7,0.3,8.3,3.7,9,8.6c0.3,2.1,0.2,4.3,0.2,6.5c0,8.6,0,17.2,0,25.8
		c7,0,13.4,0,19.7,0c0-25.9,0.8-51.4-0.2-76.8c-1.6-38.7-34.6-70.8-73.3-72.6c-44.6-2.1-81.5,32.2-82.2,76.9
		c-0.4,23.3-0.1,46.6-0.1,70C178.1,489.8,178.2,490.6,178.3,491.7z M158.1,491.7c0-4-0.1-7.6,0-11.2c0.9-26.9-2.1-54,2-80.8
		c0.2-1.5-0.7-3.6-1.7-4.8c-19.5-23-44.4-32.7-73.9-27.4c-28.9,5.1-48.7,22.4-59.5,49.9c-5.1,13.1-4.9,26.7-4.8,40.4
		c0.1,11.3,0,22.6,0,34.1C66.2,491.7,111.8,491.7,158.1,491.7z M354,491.6c46.3,0,92,0,137.9,0c0-16.8,0.3-33.3-0.1-49.8
		c-0.8-32.9-21.9-61.1-53.4-71.9c-29.9-10.2-63.9-0.5-84.3,24.4c-1.4,1.8-2.1,4.7-2,7.1c0.4,8.8,1.6,17.6,1.7,26.4
		C354.2,448.9,354,470.1,354,491.6z M97.9,262c-23,0.2-42,19.5-41.7,42.3c0.3,22.8,19.2,41.6,41.9,41.6c22.9,0,42.1-19.2,42-42
		C140,280.9,120.7,261.8,97.9,262z M456,304.7c0.7-22.6-18.2-42.1-41.3-42.7c-22.5-0.6-41.6,17.9-42.5,41
		c-0.9,22.6,17.8,42.1,41.1,42.9C435.8,346.7,455.3,327.9,456,304.7z M256.2,238c-22.8-0.2-42.1,19-42.1,41.9
		c-0.1,22.7,18.7,41.6,41.5,42c22.7,0.4,42.1-18.6,42.4-41.6C298.3,257.5,279.2,238.2,256.2,238z"/>
	<path fill="#ffffff" d="M259.1,0c5.6,3.1,7.4,7.9,7.1,14.1c-0.3,5.5,0,11-0.1,16.4c-0.2,6.6-4.2,10.7-10,10.7c-5.8,0-9.8-4.2-10-10.7
		c-0.2-6.5,0.1-12.9-0.1-19.4c-0.1-5.3,3-8.5,7-11.1C255.1,0,257.1,0,259.1,0z"/>
	<path fill="#ffffff" d="M202.1,190.1c1.7-9.7,3.5-20.9,5.6-32c0.6-3.1,0.1-5.2-2.3-7.5c-7.3-6.8-14.3-14-21.6-20.8c-4.9-4.6-7.4-10-5.4-16.6
		c2-6.6,7-9.7,13.7-10.6c10.2-1.4,20.4-2.8,30.6-4.7c2-0.4,4.5-2.1,5.4-3.9c4.8-8.9,9.2-18.1,13.6-27.2c2.9-6,7.1-10.1,14.1-10.2
		c7.2-0.1,11.6,4,14.6,10.2c4.2,8.9,8.7,17.6,12.9,26.4c1.4,2.9,3,4.6,6.5,5c10.2,1.2,20.4,3,30.6,4.4c6.3,0.9,11,4,13,10.1
		c2.1,6.3,0.1,11.7-4.6,16.3c-7.2,6.9-14.2,14.1-21.5,20.8c-2.7,2.5-3.6,4.9-2.9,8.7c2,9.9,3.6,20,5.3,30c1,6.2-0.5,11.7-5.8,15.5
		c-5,3.7-10.5,3.8-16,0.9c-9.4-4.9-18.8-10.1-28.3-14.7c-2-1-5.2-0.9-7.2,0c-9.6,4.6-18.8,10-28.4,14.7
		C213.2,210.4,201.9,203.4,202.1,190.1z M204.4,121.1c4,4.2,7.5,8.1,11.3,11.8c14.3,14,14.3,14,10.7,33.5
		c-0.9,5.1-1.6,10.2-2.6,16.2c8.3-4.3,15.6-7.9,22.7-11.9c6.6-3.8,12.8-3.8,19.3,0.1c3.7,2.2,7.6,4.1,11.5,6
		c3.4,1.8,6.9,3.5,11.1,5.7c-1.6-9.3-2.8-17.5-4.4-25.6c-1.5-7.3,0.7-12.8,6-17.9c6-5.7,11.4-11.9,17.2-18
		c-8.8-1.3-17.8-2.9-26.8-3.9c-5.8-0.6-9.4-3.3-11.8-8.5c-3.2-7.1-6.9-14-10.4-21c-0.6-1.2-1.4-2.4-2.4-4.1
		c-4.1,8.3-8,15.9-11.6,23.5c-2.8,5.9-7.1,9.3-13.7,10.2C222,118.3,213.4,119.8,204.4,121.1z"/>
	<path fill="#ffffff" d="M208.2,70.9c-0.1,9-8.3,13.6-14.7,9.8c-1.4-0.8-2.7-2-3.9-3.1c-10.4-10.3-20.7-20.7-31-31c-3.1-3.1-5.3-6.4-4.1-11.1
		c2-7.3,10.4-10.2,16.2-4.7c11.9,11.3,23.4,23.1,34.9,34.9C207.2,67.2,207.7,69.9,208.2,70.9z"/>
	<path fill="#ffffff" d="M303.9,70.2c0.8-1.3,1.9-4.1,3.8-6.1c10.6-10.8,21.3-21.5,32-32.1c5.1-5,10.8-5.3,15-1.2c4.5,4.3,4.2,10.1-1,15.4
		c-10.6,10.8-21.3,21.4-32.1,32.1c-3.4,3.4-7.5,5.1-12.2,2.8C305.8,79.3,303.9,76.1,303.9,70.2z"/>
	<path fill="#ffffff" d="M304.1,411.7c5.5-0.1,9.9,4.2,10,9.6c0.1,5.4-4.3,9.9-9.7,9.9c-5.4,0.1-10-4.3-10.1-9.6
		C294.1,416.4,298.7,411.8,304.1,411.7z"/>
</g>
</svg>
