<?xml version="1.0" encoding="utf-8"?>
<!-- Generator: Adobe Illustrator 23.0.2, SVG Export Plug-In . SVG Version: 6.00 Build 0)  -->
<svg version="1.1" id="Layer_1" xmlns="http://www.w3.org/2000/svg" xmlns:xlink="http://www.w3.org/1999/xlink" x="0px" y="0px"
	 viewBox="0 0 512 512" style="enable-background:new 0 0 512 512;" xml:space="preserve">
<style type="text/css">
	.st0{fill:#FFFFFF;}
	.st1{fill:transparent;}
</style>
<g>
	<path class="st0" d="M1,194c3.3-5.2,8.9-5.7,14.2-6.8c100.8-20.8,201.7-41.5,302.5-62.4c60.4-12.5,120.8-25,181.1-37.7
		c5.9-1.2,10.8-0.8,14.2,4.8c0,2.3,0,4.7,0,7c-1.8,0.5-1.6,2.3-2,3.5c-38.7,105.1-77.4,210.2-116.2,315.3c-0.3,0.8-0.6,1.5-0.9,2.3
		c-3,7.7-8.4,9.4-15.4,4.9c-31.1-20.2-62.2-40.4-93.2-60.7c-3-1.9-4.8-1.8-7.7,0.2c-30.2,20.3-60.5,40.5-90.8,60.7
		c-7.5,5-13.6,1.7-15-7.3c-2.4-15.9-5.5-31.7-8.4-47.6c-5.1-28.6-10.4-57.2-15.4-85.8c-0.6-3.5-2-5.5-5.1-7.1
		c-44.5-23.4-89-46.9-133.5-70.3c-3.2-1.7-5.9-3.8-8.6-6.1C1,198.7,1,196.3,1,194z M405.6,155.6c-0.9,0.4-1.8,0.7-2.7,1.2
		c-78.2,40.1-156.4,80.1-234.7,120.1c-3.1,1.6-3.4,3.2-2.8,6.2c4.6,25.3,9.1,50.6,13.7,75.9c1.2,6.8,2.6,13.6,3.9,20.4
		c7.9-23.4,15.1-46.7,22.2-70c1.4-4.5,3.6-7.8,7.5-10.7c51.3-37.5,102.5-75.2,153.6-112.9c13.4-9.9,27.1-19.2,39.9-29.8
		c0.5-0.1,0.9-0.3,0.6-0.9C406.6,155.2,406,155.5,405.6,155.6z M484.8,120.2C399.8,182.7,315,245,229.9,307.6
		c1.7,1.2,3.1,2.2,4.5,3.1c47.4,30.8,94.8,61.5,142.1,92.4c3.7,2.4,4.7,2,6.2-2.1c33.7-91.7,67.5-183.4,101.2-275.2
		C484.5,124.3,485.8,122.7,484.8,120.2z M438.7,119c-0.1-0.5-0.2-1-0.3-1.5C304.4,145.2,170.3,172.9,35,200.8
		c2.2,1.2,3.1,1.7,3.9,2.2c37.3,19.7,74.6,39.3,111.8,59.1c3.1,1.7,5.4,1.7,8.6,0.1c64.8-33.3,129.6-66.5,194.4-99.7
		C382,148,410.4,133.5,438.7,119z M265.8,351.7c-15.7-10.2-30.9-20.1-46.2-30c-7.7,25.4-15.2,50.2-23.1,76.2
		C220.1,382.2,242.7,367.1,265.8,351.7z"/>
	<path class="st1" d="M484.8,120.2c0.9,2.5-0.4,4.1-0.9,5.7c-33.7,91.7-67.6,183.4-101.2,275.2c-1.5,4-2.5,4.5-6.2,2.1
		c-47.3-30.9-94.7-61.7-142.1-92.4c-1.4-0.9-2.7-1.9-4.5-3.1C315,245,399.8,182.7,484.8,120.2z"/>
	<path class="st1" d="M438.7,119c-28.3,14.5-56.7,29-85,43.5c-64.8,33.2-129.6,66.4-194.4,99.7c-3.2,1.6-5.5,1.6-8.6-0.1
		c-37.2-19.8-74.5-39.4-111.8-59.1c-0.9-0.5-1.7-1-3.9-2.2c135.3-28,269.4-55.7,403.4-83.4C438.5,118,438.6,118.5,438.7,119z"/>
	<path class="st1" d="M406.1,156.1c-12.8,10.6-26.5,19.9-39.9,29.8c-51.1,37.7-102.3,75.3-153.6,112.9c-3.9,2.8-6.2,6.2-7.5,10.7
		c-7.1,23.3-14.2,46.6-22.2,70c-1.3-6.8-2.7-13.6-3.9-20.4c-4.6-25.3-9.1-50.6-13.7-75.9c-0.5-3-0.2-4.7,2.8-6.2
		c78.3-40,156.5-80,234.7-120.1c0.9-0.5,1.8-0.8,2.7-1.2C405.8,155.8,405.9,155.9,406.1,156.1z"/>
	<path class="st1" d="M265.8,351.7c-23.2,15.4-45.7,30.5-69.3,46.2c7.9-26,15.4-50.8,23.1-76.2C235,331.6,250.1,341.5,265.8,351.7z"
		/>
	<path class="st1" d="M405.6,155.6c0.4-0.1,1-0.4,1.1-0.3c0.3,0.6-0.1,0.8-0.6,0.9C405.9,155.9,405.8,155.8,405.6,155.6z"/>
</g>
</svg>
