<?xml version="1.0" encoding="utf-8"?>
<!-- Generator: Adobe Illustrator 23.0.2, SVG Export Plug-In . SVG Version: 6.00 Build 0)  -->
<svg version="1.1" id="Layer_1" xmlns="http://www.w3.org/2000/svg" xmlns:xlink="http://www.w3.org/1999/xlink" x="0px" y="0px"
	 viewBox="0 0 512 512" style="enable-background:new 0 0 512 512;" xml:space="preserve">
<g>
	<path fill="#ffffff" d="M37.1,143.8c0-20.1,0-40.2,0-60.3c0-7.8,2.4-10.9,9.7-13.4C114.4,47,182.1,23.8,249.8,0.9c3.6-1.2,8.2-1.2,11.8,0
		c67.6,22.9,135.1,46,202.6,69.1c7.8,2.7,10,5.7,10.1,13.6c0.7,44.3,1.5,88.5-2,132.7c-3.4,42.6-9.2,84.8-26.1,124.6
		c-24.3,57.2-64.3,100.7-115.9,134.5c-21.8,14.3-45.2,25.4-69.1,35.5c-3.1,1.3-7.6,1.5-10.6,0.2c-41.8-17.3-80.7-39.5-114.2-70.3
		C87.7,396.1,57.9,341.2,46.5,276C38.9,232.3,36.8,188.1,37.1,143.8z M452.3,145c0-17.2-0.1-34.5,0.1-51.7c0-3.1-0.9-4.7-4-5.7
		c-63-21.5-125.9-43.1-188.9-64.6c-2.2-0.7-5-0.8-7.1-0.1C189.1,44.5,125.8,66.3,62.5,88c-2.9,1-3.8,2.3-3.9,5.3
		c-0.9,59.8-1,119.4,9.2,178.6c9,52,30.6,97.7,66.5,136.4c33.4,36,74.1,61.6,119.3,80.3c1.3,0.5,3.1,0.4,4.4-0.1
		c31.1-13.4,60.6-29.6,87.1-50.9c50.8-40.8,83.6-92.7,96.5-156.8C450.7,235.9,452.5,190.5,452.3,145z"/>
	<path fill="#ffffff" d="M419.8,163.5c-1,37.3-2.7,78.9-12.1,119.6c-12.2,53.2-41.3,95.6-84.1,129c-19,14.8-39.5,27.1-61.5,36.9
		c-4,1.8-7.7,2.3-11.8,0.5c-43.4-19.8-81.1-47-109.6-85.7c-21.9-29.7-35-63.1-40.8-99.5c-7.6-47.4-8.8-95.1-8.2-143
		c0.1-7.5,2.4-10.4,9.5-12.9c49.5-17,99-34.1,148.6-50.8c3.6-1.2,8.2-1.2,11.8,0c49.6,16.8,99.1,33.8,148.6,50.8
		c7.2,2.5,9.5,5.6,9.6,13.5C419.9,134.4,419.8,146.8,419.8,163.5z M397.7,169.3c0-13-0.2-25,0.1-36.9c0.1-3.9-1.3-5.5-4.9-6.7
		c-44.3-15.1-88.6-30.4-133-45.4c-2.4-0.8-5.7-0.9-8.1-0.1c-44.7,15.2-89.3,30.6-134,45.8c-3.2,1.1-4.3,2.6-4.3,6
		c-0.3,40.6,0.8,81,6.5,121.3c4.6,32.2,14.1,62.6,32.4,89.9c25.3,37.7,59.9,64.1,100.4,83.3c1.7,0.8,4.5,0.5,6.3-0.3
		c20.2-9.4,38.8-21.4,56.1-35.6c33.4-27.5,57.3-61.6,68.8-103.5C394.8,248.2,396.4,208.1,397.7,169.3z"/>
	<path fill="#ffffff" d="M228.8,281c1.9-1.9,3.4-3.2,4.7-4.5c23.4-23.4,46.7-46.7,70.1-70.1c1.1-1.1,2.2-2.3,3.4-3.4c4.7-4.1,11.3-4,15.4,0.2
		c4,4.1,4.1,10.3,0.3,15c-0.9,1.1-2,2.1-3,3.1c-26.8,26.8-53.5,53.5-80.3,80.3c-8,8-12.8,7.9-20.7,0c-9.4-9.4-18.9-18.8-28.3-28.3
		c-5.7-5.7-6.2-12.2-1.4-16.9c4.8-4.8,11.1-4.3,16.9,1.5C213.4,265.3,220.9,272.9,228.8,281z"/>
</g>
</svg>
