<?xml version="1.0" encoding="utf-8"?>
<!-- Generator: Adobe Illustrator 23.0.2, SVG Export Plug-In . SVG Version: 6.00 Build 0)  -->
<svg version="1.1" id="Layer_1" xmlns="http://www.w3.org/2000/svg" xmlns:xlink="http://www.w3.org/1999/xlink" x="0px" y="0px"
	 viewBox="0 0 512 512" style="enable-background:new 0 0 512 512;" xml:space="preserve">
<g>
	<path fill="#ffffff" d="M468,513c-12.4-2.3-21.4-9.7-30.1-18.4c-40.7-41-81.7-81.8-122.5-122.7c-1.3-1.3-2.3-2.9-3-3.8
		c-12.3,6.2-23.4,12.7-35.2,17.5c-42.2,17.4-85.5,20.3-129.5,7.8c-49.5-14-88.1-42.9-115.8-86.3c-17.4-27.3-27.4-57.2-30.1-89.4
		c-0.1-0.9-0.5-1.9-0.8-2.8c0-9.3,0-18.7,0-28c0.3-1.1,0.7-2.2,0.8-3.3c2.2-27.8,10-54,23.7-78.2C57.7,48.6,106.4,14.7,170.8,3.3
		c5.4-0.9,10.8-1.5,16.2-2.3c9.3,0,18.7,0,28,0c5.2,0.7,10.5,1.3,15.7,2.2c64.9,11.3,115,44.9,145.9,103.1
		c35.6,66.9,32.8,134.2-5.6,199.8c-0.9,1.6-1.9,3.1-4.3,6.3c1.7,1,3.8,1.7,5.1,3.1c40.9,40.8,81.7,81.8,122.7,122.5
		c8.7,8.6,16.1,17.7,18.4,30.1c0,3.3,0,6.7,0,10c-2.6,6.2-4.5,12.9-8.1,18.6c-6.1,9.7-16.1,14-26.9,16.4
		C474.7,513,471.3,513,468,513z M200.9,21C101.8,21.2,20.6,102.6,21,201.3c0.4,99.2,81.4,179.9,180.4,179.7
		c98.8-0.2,179.9-81.5,179.6-180C380.6,101.7,299.7,20.8,200.9,21z M371.3,399.6c-0.2-0.2,0.4,0.4,1,1
		c28.3,28.3,56.5,56.5,84.8,84.8c1.2,1.2,2.4,2.3,3.7,3.3c8.1,6.3,19.2,5.5,26.4-1.7c8.2-8.3,7.8-20.3-1.3-29.4
		c-20.2-20.3-40.5-40.5-60.7-60.8c-8.8-8.8-17.6-17.7-25.5-25.5C390.2,380.7,380.9,390,371.3,399.6z M383.5,356.6
		c-9.6-9.6-18.8-18.9-26.6-26.7c-9,8.9-18.3,18-27.3,26.8c8.1,8.1,17.4,17.3,26.8,26.8c4.2-3.8,8.9-7.8,13.2-12.2
		C374.5,366.5,379.1,361.4,383.5,356.6z"/>
	<path fill="#ffffff" d="M361,200.9c0.2,87.8-71.8,159.9-159.9,160.1C113.3,361.2,41.2,289.1,41,201.1C40.8,113.3,112.9,41.2,200.9,41
		C288.7,40.8,360.8,112.9,361,200.9z M201,61C124,61,61,124.1,61,201c0,76.9,63.1,140,140,140c76.9,0,140-63.1,140-140
		C341,124,277.9,61,201,61z"/>
	<path fill="#ffffff" d="M313.6,161.3c0,4.8-3.1,8.7-7.5,9.8c-4.9,1.2-8.9-0.8-11.5-5.6c-4.6-8.3-8.4-17.1-14-24.6c-19-25-44.7-38.1-76.1-39.9
		c-0.8,0-1.7,0-2.5-0.1c-6.6-0.4-10.9-4.4-10.9-10c0-5.8,4.7-9.9,11.4-10c46.6-0.6,94.5,32.4,110,75.9
		C313.1,158.4,313.3,160.1,313.6,161.3z"/>
	<path fill="#ffffff" d="M301.1,200.9c0.1-5.3,4.8-9.9,10-9.8c5.3,0.1,9.9,4.8,9.8,10c-0.1,5.3-4.8,9.9-10,9.8C305.6,210.8,301,206.1,301.1,200.9z"
		/>
</g>
</svg>
