<?xml version="1.0" encoding="utf-8"?>
<!-- Generator: Adobe Illustrator 23.0.2, SVG Export Plug-In . SVG Version: 6.00 Build 0)  -->
<svg version="1.1" id="Layer_1" xmlns="http://www.w3.org/2000/svg" xmlns:xlink="http://www.w3.org/1999/xlink" x="0px" y="0px"
	 viewBox="0 0 512 512" style="enable-background:new 0 0 512 512;" xml:space="preserve">
<g>
	<path fill="#e31718" d="M260,0c8.7,4,11.8,10.8,11.1,20.1c-0.5,6.6-0.1,13.3-0.1,20.3c53.6,4.4,99.7,25,137.6,62.8c37.9,37.8,58.5,83.9,63,137.8
		c8.6,0,17.1-0.2,25.5,0c11.2,0.3,18.2,11.4,13.4,21.2c-2.8,5.8-7.6,8.6-14,8.7c-8.1,0.1-16.3,0-24.9,0
		c-4.4,53.5-24.9,99.6-62.7,137.5C371,446.4,325,467.1,271,471.5c0,7.2,0,14.3,0,21.4c0,2.3,0.1,4.7-0.3,7
		c-1.6,7.6-8.6,12.8-16.1,12c-7.6-0.8-13.4-7-13.5-14.9c-0.2-8.3,0-16.6,0-25.5c-53.6-4.4-99.8-25.1-137.8-63
		C65.4,370.7,44.8,324.6,40.4,271c-7,0-13.7-0.4-20.3,0.1C10.8,271.8,4,268.6,0,260c0-2.7,0-5.3,0-8c4-8.6,10.8-11.8,20.1-11.1
		c6.7,0.5,13.5,0.1,20.3,0.1c4.5-54.1,25.2-100,63.1-137.8c37.9-37.8,83.9-58.3,137.5-62.7c0-7,0.4-13.7-0.1-20.3
		C240.2,10.8,243.3,4,252,0C254.7,0,257.3,0,260,0z M241,131.1c-59.1,6.4-104.7,55.9-109.7,109.4c0.1,0.1,0.3,0.2,0.4,0.2
		c7.8,0.1,15.6,0,23.5,0.3c11.8,0.4,18.6,12.9,12.6,22.7c-3,4.9-7.6,7.3-13.4,7.3c-7.7,0-15.5,0-23.2,0
		c7.1,62.6,60,105.6,109.9,109.6c0-7.3,0-14.6,0-21.9c0-9.8,6.1-16.5,14.8-16.7c8.9-0.1,15.1,6.7,15.2,16.8c0,7.3,0,14.6,0,21.9
		c59.3-5.6,105.8-57.7,109.5-109.4c-0.3-0.1-0.6-0.3-0.9-0.3c-6.8,0-13.7,0-20.5-0.1c-10.2,0-17-6-17-14.9c0-8.9,6.8-15,16.9-15.1
		c7.3,0,14.6,0,21.9,0c-5.9-56.8-53.3-104-109.8-109.8c0,7.5,0,15,0,22.4c-0.1,9.7-6.3,16.4-15.1,16.4c-8.7,0-14.9-6.8-14.9-16.5
		C241,146.1,241,138.8,241,131.1z M271.3,99.9C351.4,114,398,160.7,412.1,240.7c9.2,0,19,0,28.7,0C435.9,151,357.7,75.4,271.3,71.2
		C271.3,81,271.3,90.7,271.3,99.9z M71,271.2c6.4,96.6,90.2,166.6,170,169.4c0-4.8,0-9.6,0-14.4c0-4.9,0-9.9,0-14
		c-80.5-14.4-127.2-61.1-141.2-141C90.6,271.2,81,271.2,71,271.2z M71.1,240.6c10.2,0,19.9,0,28.7,0
		c14.4-80.2,61.2-126.8,140.7-140.8c0-9.4,0-19.2,0-28.9C150,77.1,76.2,153.6,71.1,240.6z M271.2,441.4
		c48.6-4.7,89.4-24.6,122.1-60.3c28.4-31,44.2-67.7,48-110.1c-5.7,0-10.5,0-15.3,0c-4.9,0-9.9,0-13.8,0
		c-14.5,80.6-61.2,127.2-141,141.2C271.2,421.5,271.2,431.1,271.2,441.4z"/>
	<path fill="#e31718" d="M311,255.9c0,30.2-24.7,55-54.9,55.1c-30.2,0-55-24.7-55.1-54.9c0-30.2,24.7-55,54.9-55.1C286.2,201,310.9,225.7,311,255.9
		z M256.2,281c13.8-0.1,24.9-11.5,24.8-25.3c-0.1-13.6-11.3-24.6-24.9-24.7c-13.8,0-25.1,11.2-25.1,25
		C231,269.8,242.4,281.1,256.2,281z"/>
</g>
</svg>
